<svg width="201" height="80" viewBox="0 0 201 80" fill="none" xmlns="http://www.w3.org/2000/svg">
<g clip-path="url(#clip0_72_314)">
<path d="M176.837 44.1113C188.866 44.1113 198.617 34.2365 198.617 22.0557C198.617 9.87478 188.868 0 176.837 0C164.806 0 155.055 9.87478 155.055 22.0557C155.055 34.2365 164.808 44.1113 176.835 44.1113H176.837ZM176.837 40.3739C166.847 40.3739 158.746 32.1722 158.746 22.0557C158.746 11.9391 166.845 3.73739 176.837 3.73739C186.827 3.73739 194.926 11.9391 194.926 22.0557C194.926 32.1722 186.827 40.3739 176.837 40.3739Z" fill="white"/>
<path fill-rule="evenodd" clip-rule="evenodd" d="M185.327 22.0556L172.775 29.9061V14.2052L185.327 22.0556Z" fill="white"/>
<path d="M2.21587 44.1113V0H14.3092V33.3983H35.4399V44.1113H2.21414H2.21587ZM40.6097 44.1113V0H52.4225V44.1113H40.6097ZM74.5141 44.1113L56.8564 0H70.3503L80.2362 27.7183L90.1255 0H103.37L85.7106 44.1113H74.5159H74.5141ZM107.063 44.1113V0H142.191V10.3983H119.042V17.0765H140.008V26.72H119.042V33.7148H142.503V44.113H107.063V44.1113ZM10.6993 80C6.65325 80 2.80452 78.7113 -0.00195312 76.167L3.52129 71.9043C5.772 73.7217 8.28588 74.68 10.9279 74.68C12.6246 74.68 13.5387 74.0852 13.5387 73.0278C13.5387 72.0696 12.7891 71.5409 9.68825 70.8139C4.83017 69.6904 1.07666 68.3009 1.07666 63.4765C1.07666 59.1809 4.43716 56.0748 9.91852 56.0748C13.8019 56.0748 16.8351 57.1322 19.3161 59.1478L16.1513 63.6748C14.0616 62.1878 11.778 61.3965 9.75578 61.3965C8.22183 61.3965 7.47043 62.0574 7.47043 62.9478C7.47043 64.0052 8.25472 64.4678 11.4196 65.1948C16.6724 66.3513 19.9359 68.0696 19.9359 72.4643C19.9359 77.1913 16.2482 80 10.7011 80H10.6993ZM28.9665 79.2522V61.7043H22.1486V56.0748H42.0847V61.7043H35.2668V79.2522H28.9665ZM45.0384 79.2522V56.0748H55.6635C59.0984 56.0748 61.4738 57.0017 62.9835 58.5583C64.2993 59.9148 64.9745 61.7043 64.9745 64.0539C64.9745 67.5983 63.1445 69.9496 60.3519 71.1739L65.7121 79.2522H58.5202L53.9945 72.233H51.2659V79.2522H45.0384ZM50.9457 67.2904H55.0194C57.1195 67.2904 58.328 66.2922 58.328 64.6417C58.328 62.9287 57.0555 62.0556 54.9866 62.0556H50.9457V67.2904ZM67.9265 79.2522V56.0748H86.2231V61.5374H74.1696V65.047H85.089V70.113H74.1696V73.7896H86.3893V79.2522H67.9282H67.9265ZM87.8626 79.2522L97.4178 56.0748H103.413L112.969 79.2522H106.299L104.665 75.1426H96.0085L94.4053 79.2522H87.8643H87.8626ZM98.1986 70.28H103.368L100.801 63.5513L98.2003 70.2817L98.1986 70.28ZM115.183 79.2539V56.073H121.895L127.366 65.047L132.834 56.073H139.548V79.2522H133.228V65.9409L127.364 75.0139H127.235L121.405 66.0087V79.2522H115.185L115.183 79.2539ZM143.239 79.2539V56.073H149.884V79.2522H143.239V79.2539ZM154.314 79.2539V56.073H160.178L169.508 68.3235V56.073H175.727V79.2522H170.222L160.535 66.5391V79.2522H154.314V79.2539ZM191.001 80C183.951 80 178.681 75.0713 178.681 68.0383C178.681 61.3322 183.854 56.0748 190.871 56.0748C194.85 56.0748 197.663 57.3235 200.056 59.4261L196.368 63.9304C194.753 62.5496 193.136 61.76 190.904 61.76C187.639 61.76 185.116 64.553 185.116 68.1357C185.116 71.8487 187.67 74.5113 191.259 74.5113C192.779 74.5113 193.942 74.1826 194.881 73.5583V70.7652H190.419V66.0991H200.833V76.4504C198.077 78.7632 194.594 80.0208 191.003 80H191.001Z" fill="white"/>
</g>
<defs>
<clipPath id="clip0_72_314">
<rect width="200.833" height="80" fill="white"/>
</clipPath>
</defs>
</svg>
