<svg width="201" height="63" viewBox="0 0 201 63" fill="none" xmlns="http://www.w3.org/2000/svg">
<g clip-path="url(#clip0_401_171)">
<path fill-rule="evenodd" clip-rule="evenodd" d="M75.9316 19.4075C78.0596 19.4075 80.4143 19.6831 82.9281 20.2282L83.6194 20.3779L83.468 21.0647L82.1879 26.9027L82.0374 27.5896L81.3461 27.44C79.5314 27.0462 77.5355 26.8205 75.8721 26.8205C73.1727 26.8205 71.5549 27.2002 71.3213 28.1899C71.0325 29.4087 70.8925 29.9241 74.6305 31.7896C77.8697 33.4057 83.6185 36.4481 82.3305 43.3632C81.7154 46.6646 79.7781 49.1417 76.7497 50.7614C74.2429 52.101 70.924 52.8089 67.151 52.8089C64.898 52.8015 62.6511 52.5762 60.4415 52.136L59.7476 51.9995L59.885 51.31L61.0496 45.4475L61.187 44.7589L61.8809 44.8954C61.9885 44.9164 64.5558 45.4142 67.3986 45.4142C70.5618 45.4142 74.2473 45.4676 74.8449 42.5539C75.2071 40.7864 75.1538 39.9577 71.2994 38.0354C68.1634 36.4691 62.3254 33.908 64.029 26.6901C65.1376 21.9931 69.3647 19.4066 75.9316 19.4066V19.4075ZM155.19 20.349H161.457L161.275 21.1977L154.751 51.681L154.632 52.2384H149.692L149.503 51.8297L142.066 35.7875L142.044 35.7411L142.03 35.6921L141.502 33.9097L141.369 35.5495L141.365 35.595L141.356 35.6387L138.008 51.464L137.889 52.0222H131.049L131.231 51.1726L137.755 20.6894L137.874 20.1329H142.813L143.003 20.5424L150.483 36.7132L150.506 36.7622L150.521 36.8147L150.959 38.346L151.049 36.9617L151.052 36.9101L151.063 36.8602L154.499 20.9046L154.619 20.349H155.19V20.349ZM109.486 27.0305H101.621L96.3909 51.4649L96.271 52.0222H89.173L89.3532 51.1735L94.479 27.0305H86.0405L86.2225 26.1809L87.353 20.9055L87.4729 20.349H111.439L111.266 21.1934L110.178 26.4679L110.063 27.0305H109.485H109.486ZM48.1469 32.6725H58.6338L58.443 33.5265L57.2687 38.8019L57.1462 39.3531H46.7547L45.451 45.3407H57.141L56.966 46.1851L55.8792 51.4596L55.7637 52.0222H36.9618L37.142 51.1735L43.5785 20.9072L43.6975 20.349H62.2799L62.0979 21.1986L60.9674 26.474L60.8475 27.0305H49.3649L48.1469 32.6725V32.6725ZM169.367 11.942H37.7606L26.6254 62.9772L7.2205 27.7585H0L1.66687 20.0261H12.026L23.275 40.8494L31.2812 4.20873H171.055L171.947 0.123352L197.817 7.39898L200.35 8.11123L197.799 8.7561L169.481 15.925L168.439 16.1875L169.367 11.9411V11.942ZM115.585 39.158H119.804L119.188 33.187L119.184 33.1485V33.1091L119.196 31.8719L118.643 33.397L118.626 33.4434L118.603 33.4871L115.585 39.1571V39.158ZM124.115 20.7471L128.03 51.2295L128.132 52.0214H121.053L120.973 51.4089L120.183 45.3197H112.356L108.946 51.6504L108.746 52.0214H101.078L101.658 50.9784L118.62 20.4951L118.822 20.1329H124.036L124.115 20.7471V20.7471Z" fill="white"/>
</g>
<defs>
<clipPath id="clip0_401_171">
<rect width="200.375" height="63" fill="white"/>
</clipPath>
</defs>
</svg>
