<svg width="654" height="403" viewBox="0 0 654 403" fill="none" xmlns="http://www.w3.org/2000/svg">
<g clip-path="url(#clip0_72_289)">
<path d="M13.6349 278.275C14.2644 274.22 13.0264 270.796 10.1341 267.932C9.20728 267.013 8.91 265.917 9.00676 264.623C9.24808 261.378 9.41363 258.126 9.6258 254.878C9.65611 254.427 9.63745 253.871 9.88459 253.555C11.7358 251.184 10.0396 249.355 9.2201 247.214C7.21496 241.974 2.78852 238.029 1.58427 232.364C1.09115 230.045 0.44065 227.817 1.19374 225.47C1.44438 224.687 1.37677 223.971 0.902297 223.313C-0.46166 221.425 -0.222683 219.681 1.23803 217.941C1.81976 217.25 2.08789 216.349 2.21962 215.43C2.68826 212.177 5.98391 210.738 8.63138 212.733C9.84729 213.648 10.9163 214.666 12.5134 214.914C13.3528 215.044 13.8238 215.846 13.8692 216.582C14.1898 221.791 18.6361 223.441 22.0308 225.877C23.3073 226.793 24.5978 227.708 25.8662 228.652C27.9599 230.212 29.873 231.651 32.9844 231.233C34.7739 230.993 37.1229 230.963 39.0873 232.171C40.8266 233.24 42.4051 231.621 43.846 231.027C52.1253 227.619 58.5954 221.936 63.5499 214.502C64.2202 213.497 64.9244 212.497 65.7299 211.6C67.2489 209.911 68.2282 208.028 68.4112 205.73C68.6245 203.061 69.8591 200.853 71.5844 198.843C73.1139 197.059 74.2587 195.079 75.0934 192.815C76.2359 189.724 78.635 187.775 82.0146 187.297C87.0519 186.584 92.1091 185.234 96.4178 182.915C100.281 180.837 104.182 180.249 108.192 179.37C109.739 179.031 111.06 179.216 112.131 180.41C114.667 183.237 118.017 183.99 121.588 184.102C125.511 184.225 129.196 185.268 132.814 186.691C137.74 188.626 142.708 190.429 146.281 194.679C147.624 196.277 149.591 196.401 151.537 196.135C153.439 195.873 155.116 196.202 156.62 197.493C157.771 198.484 158.843 198.451 160.261 197.492C162.999 195.642 165.701 193.673 168.906 192.579C170.25 192.12 171.516 191.381 172.748 190.652C175.124 189.243 177.131 187.606 177.87 184.648C178.375 182.627 179.525 180.761 180.424 178.844C182.838 173.7 183.408 168.112 184.342 162.616C184.684 160.597 184.953 158.543 185.735 156.662C188.58 149.817 187.22 142.774 186.77 135.797C186.593 133.052 187.148 130.14 185.545 127.593C184.344 125.689 183.763 123.587 183.606 121.371C183.345 117.67 183.165 113.963 182.897 110.262C182.804 108.969 183.382 108.465 184.591 108.458C186.328 108.449 188.101 108.262 189.508 109.63C189.561 109.681 189.637 109.724 189.708 109.736C194.666 110.652 198.086 114.286 202.182 116.73C204.784 118.283 207.518 119.461 210.647 119.783C213.105 120.036 215.481 121.092 217.755 121.991C222.726 123.955 227.611 123.638 232.444 122.143C237.573 120.557 242.353 120.71 247.168 123.2C250.435 124.89 254.148 124.762 257.663 124.431C262.551 123.972 267.207 124.089 271.882 125.921C275.228 127.231 278.943 126.484 282.492 126.679C289.364 127.055 296.053 128.578 302.788 129.819C302.863 129.833 302.937 129.865 303.011 129.865C314.115 129.91 325.143 132.862 336.275 130.991C340.798 130.231 345.158 128.596 349.762 128.041C353.725 127.562 357.526 126.096 361.565 126.002C361.865 125.997 362.195 125.964 362.455 125.834C368.901 122.61 375.891 122.033 382.919 121.566C386.762 121.309 389.993 119.323 393.006 117.229C400.382 112.103 408.406 108.216 416.621 104.763C421.596 102.672 427.057 102.162 432.444 101.97C437.591 101.785 442.871 102.069 447.8 100.801C452.099 99.6976 456.66 98.3951 460.47 96.4327C465.557 93.8138 470.958 93.2204 476.155 91.5558C477.152 91.2369 478.244 91.1645 479.13 90.5536C482.628 88.1461 486.603 86.5318 490.01 83.9724C490.606 83.525 491.309 83.1419 492.023 82.9398C497.094 81.503 501.471 78.7463 505.779 75.847C508.454 74.0481 511.342 72.7457 514.571 72.4128C515.76 72.2901 516.466 71.768 517.117 70.8171C521.075 65.0396 525.476 59.678 531.421 55.7706C532.499 55.0616 533.388 54.1645 533.299 52.6319C533.124 49.6065 535.544 47.7959 538.145 49.4861C542.571 52.362 546.611 50.1788 550.795 49.3612C551.837 49.1579 552.728 48.4477 553.339 47.5447C554.648 45.6115 556.573 44.8242 558.774 44.7179C565.457 44.3908 570.528 40.7229 575.806 37.1333C579.635 34.5284 582.406 31.635 584.717 27.4847C586.472 24.3308 590.347 21.5763 595.069 22.8192C597.81 23.5411 600.169 22.4945 601.807 20.518C605 16.6668 609.238 15.4718 613.875 15.1248C618.527 14.7779 622.628 12.8564 626.762 10.9757C627.148 10.8079 627.485 10.5445 627.742 10.2103C627.999 9.87598 628.167 9.48178 628.231 9.06465C628.526 7.24239 629.615 6.75646 631.148 7.36739C633.614 8.35094 634.949 7.47252 635.758 5.10124C636.304 3.50559 637.575 2.57811 639.195 2.05246C643.408 0.68109 647.713 -0.061829 652.15 0.00358553C653.523 0.0246116 654.676 0.462644 653.535 1.97068C651.269 4.96456 651.13 8.47475 650.954 11.9149C650.744 16.0079 648.253 18.0218 644.875 19.2483C636.603 22.2527 628.543 25.8458 620.939 30.148C615.321 33.3264 610.339 37.7828 605.933 42.655C604.499 44.2401 603.644 46.2598 603.186 48.3321C602.92 49.5352 602.369 50.3505 601.511 51.1507C597.392 54.9903 593.052 58.3813 587.736 60.5891C583.024 62.5468 579.77 66.4881 576.56 70.3721C572.277 75.5527 566.839 79.1948 560.395 81.058C557.455 81.9072 555.019 83.4526 552.616 85.1254C550.445 86.6346 548.454 88.4019 546.402 90.0782C545.812 90.5582 545.105 90.8708 544.353 90.9835C541.594 91.4437 539.219 92.7508 536.985 94.3593C532.65 97.4793 528.652 101.078 523.764 103.417C522.594 103.978 522.066 105.323 521.524 106.493C520.246 109.247 518.783 111.603 515.961 113.351C512.457 115.521 510.092 119.008 508.834 123.058C508.228 125.008 507.719 126.986 507.134 128.941C505.999 132.741 504.157 134.189 500.231 134.14C497.452 134.107 494.775 134.241 492.481 136.082C491.855 136.584 491.05 136.569 490.294 136.533C489.008 136.471 487.682 136.522 486.448 136.22C482.478 135.248 478.926 135.878 475.517 138.212C473.592 139.529 471.925 140.848 471.027 143.094C469.953 145.786 468.126 148 466.303 150.257C462.884 154.488 460.702 159.347 460.126 164.838C459.977 166.265 460.007 167.773 459.535 169.094C457.957 173.51 458.958 177.706 460.718 181.672C464.035 189.147 467.885 196.319 473.15 202.708C474.338 204.149 474.593 206.472 475.974 208.098C478.967 211.623 482.101 215.025 485.369 218.295C491.107 224.028 496.244 230.289 501.463 236.483C503.396 238.776 504.529 241.325 504.619 244.317C504.669 246.037 505.244 247.574 506.149 249.006C507.01 250.367 507.622 251.751 507.574 253.457C507.539 254.718 508.08 255.661 509.74 255.774C511.507 255.896 512.491 256.912 511.742 258.914C511.456 259.676 511.38 260.505 511.065 261.291C510.699 262.211 510.491 263.004 509.259 263.145C507.987 263.292 507.443 262.546 506.974 261.678C506.419 260.655 505.776 260.247 504.6 260.741C503.081 261.381 501.723 260.715 500.608 259.776C497.144 256.856 493.374 254.816 488.663 255.119C488.359 255.134 488.056 255.073 487.781 254.941C481.212 251.705 474.599 252.189 467.949 254.665C465.965 255.403 463.951 256.059 461.969 256.805C459.536 257.718 458.144 259.7 456.971 261.862C455.852 263.928 454.539 265.706 451.936 265.951C451.577 265.984 451.161 266.142 450.901 266.383C448.11 268.959 445.611 267.87 442.968 265.998C434.54 260.025 424.812 257.932 414.778 256.949C409.648 256.447 404.475 256.234 399.472 257.912C394.15 259.696 390.129 262.645 387.289 267.937C384.427 273.27 384.565 278.382 385.415 283.858C385.566 284.835 385.579 285.828 385.27 286.785C383.973 290.814 382.677 294.843 381.348 298.861C381.136 299.5 380.869 300.187 380.429 300.673C377.738 303.648 376.15 307.226 374.568 310.843C373.336 313.661 372.012 314.289 369.191 312.952C365.017 310.978 361.275 311.802 357.501 313.859C355.589 314.901 354.245 316.312 353.094 318.232C350.62 322.359 346.584 324.588 342.118 326.117C336.684 327.979 331.259 329.867 325.852 331.807C323.87 332.519 322.5 334.12 321.045 335.552C319.763 336.813 318.425 337.534 316.465 337.589C313.996 337.657 312.028 339.442 310.088 340.782C306.057 343.563 301.66 345.073 296.892 345.945C293.463 346.57 290.117 347.346 286.578 346.933C284.316 346.668 282.866 348.478 281.83 350.011C279.344 353.686 275.708 353.637 272.167 353.192C263.575 352.111 255.004 351.318 246.325 351.818C243.917 351.958 241.756 352.604 239.531 353.347C233.856 355.242 228.149 357.074 222.837 359.853C217.337 362.733 212.762 366.947 210.059 372.407C206.897 378.79 205.644 385.607 210.65 392.057C212.317 394.205 213.476 396.711 214.11 399.407C214.38 400.554 214.533 401.825 213.673 402.634C212.74 403.513 211.695 402.582 210.747 402.194C210.328 402.022 209.85 401.867 209.549 401.556C205.301 397.185 200.225 399.021 195.185 399.249C192.309 399.379 190.003 400.277 187.556 401.357C186.904 401.645 186.064 401.594 185.316 401.561C183.687 401.49 182.86 400.628 183.446 399.017C185.638 392.998 183.997 387.784 180.915 382.424C179.078 379.228 177.599 375.903 175.005 373.182C171.375 369.371 167.748 365.982 161.758 366.929C156.903 367.695 151.758 367.201 147.105 368.533C140.328 370.472 133.263 370.911 126.599 373.062C122.804 374.289 119.472 373.936 116.18 371.948C113.377 370.254 110.624 368.467 107.083 369.676C106.705 369.805 106.069 369.729 105.775 369.483C101.672 366.049 96.1578 365.582 91.7512 362.778C88.8157 360.912 85.681 359.348 83.1711 356.865C81.3618 355.076 79.2307 354.284 76.6322 354.225C73.5546 354.158 70.5119 353.62 67.967 351.576C67.2081 350.966 66.244 351.108 65.3324 351.299C62.6837 351.855 60.3802 351.157 58.4077 349.343C56.3979 347.497 54.444 345.59 52.3993 343.786C50.5876 342.189 48.5149 341.05 46.3442 339.919C43.2118 338.288 40.7089 335.574 37.5624 333.766C36.1239 332.94 35.9513 330.799 35.8161 329.014C35.5806 325.893 35.8138 322.704 33.108 320.21C31.5948 318.816 32.3409 316.778 32.9296 315.054C33.4379 313.569 33.7084 312.145 32.9926 310.662C32.6802 310.019 32.637 309.295 32.9226 308.669C34.0406 306.229 32.6627 304.814 30.8942 303.547C30.4046 303.196 29.6841 303.03 29.381 302.574C27.5869 299.875 25.3428 298.235 21.8909 298.756C21.2066 298.86 20.5887 298.252 20.4722 297.506C20.021 294.622 18.1255 292.472 16.8058 290.019C14.8415 286.37 12.6626 282.734 13.6349 278.275Z" fill="#8B00FF"/>
</g>
<defs>
<clipPath id="clip0_72_289">
<rect width="654" height="403" fill="white"/>
</clipPath>
</defs>
</svg>
